<svg width="164" height="39" viewBox="0 0 164 39" fill="none" xmlns="http://www.w3.org/2000/svg">
<path d="M16.1967 4.8606C7.25151 4.86059 7.82015e-07 12.391 0 21.6803C-7.82013e-07 30.9695 7.25151 38.4999 16.1967 38.4999L16.1967 4.8606Z" fill="#D3FBD8"/>
<path d="M16.1966 38.4999C12.068 38.4999 8.72119 34.8742 8.72119 30.4016C8.72119 25.929 12.068 22.3032 16.1966 22.3032L16.1966 38.4999Z" fill="#243E47"/>
<path d="M16.1968 38.4999C21.3574 38.4999 25.541 34.8742 25.541 30.4016C25.541 25.929 21.3575 22.3032 16.1968 22.3032L16.1968 38.4999Z" fill="#F4C5A0"/>
<path d="M37.8054 10.7939C39.7261 11.8946 39.7261 14.6464 37.8054 15.7471L20.5185 25.6536C18.5977 26.7543 16.1968 25.3784 16.1968 23.1769L16.1968 3.36402C16.1968 1.16258 18.5977 -0.213318 20.5185 0.8874L37.8054 10.7939Z" fill="#D3FBD8"/>
<path d="M48.6168 25.5C48.3788 25.5 48.1748 25.4207 48.0048 25.262C47.8461 25.092 47.7668 24.888 47.7668 24.65V14.96C47.7668 14.722 47.8461 14.5237 48.0048 14.365C48.1748 14.195 48.3788 14.11 48.6168 14.11H55.3998C55.6378 14.11 55.8361 14.195 55.9948 14.365C56.1534 14.5237 56.2328 14.722 56.2328 14.96C56.2328 15.198 56.1534 15.402 55.9948 15.572C55.8361 15.7307 55.6378 15.81 55.3998 15.81H49.4498V18.734H54.6178C54.8558 18.734 55.0541 18.8133 55.2128 18.972C55.3714 19.1307 55.4508 19.329 55.4508 19.567C55.4508 19.805 55.3714 20.009 55.2128 20.179C55.0541 20.3377 54.8558 20.417 54.6178 20.417H49.4498V23.8H55.3658C55.6038 23.8 55.8021 23.885 55.9608 24.055C56.1194 24.2137 56.1988 24.412 56.1988 24.65C56.1988 24.888 56.1194 25.092 55.9608 25.262C55.8021 25.4207 55.6038 25.5 55.3658 25.5H48.6168ZM63.7939 25.602C63.6806 25.602 63.5672 25.5793 63.4539 25.534C63.3519 25.4887 63.2669 25.4263 63.1989 25.347L60.7849 22.389L57.9969 25.347C57.8496 25.5057 57.6512 25.585 57.4019 25.585C57.1866 25.585 56.9996 25.5057 56.8409 25.347C56.6822 25.177 56.6029 24.9843 56.6029 24.769C56.6029 24.531 56.6822 24.3327 56.8409 24.174L59.7309 21.199L57.4529 18.479C57.3849 18.3997 57.3282 18.309 57.2829 18.207C57.2489 18.105 57.2319 18.0143 57.2319 17.935C57.2319 17.7083 57.3112 17.5157 57.4699 17.357C57.6286 17.187 57.8156 17.102 58.0309 17.102C58.2802 17.102 58.4842 17.1927 58.6429 17.374L60.8869 20.128L63.5049 17.391C63.6749 17.221 63.8732 17.136 64.0999 17.136C64.3152 17.136 64.5022 17.221 64.6609 17.391C64.8309 17.5497 64.9159 17.7367 64.9159 17.952C64.9159 18.054 64.8932 18.156 64.8479 18.258C64.8026 18.36 64.7459 18.445 64.6779 18.513L61.9579 21.301L64.4399 24.276C64.5532 24.4233 64.6099 24.5933 64.6099 24.786C64.6099 25.0127 64.5306 25.2053 64.3719 25.364C64.2132 25.5227 64.0206 25.602 63.7939 25.602ZM67.1129 28.611C66.8976 28.611 66.7049 28.526 66.5349 28.356C66.3762 28.1973 66.2969 28.0103 66.2969 27.795V17.935C66.2969 17.697 66.3762 17.4987 66.5349 17.34C66.6936 17.1813 66.8919 17.102 67.1299 17.102C67.3226 17.102 67.4982 17.1757 67.6569 17.323C67.8269 17.4703 67.9119 17.663 67.9119 17.901V18.088C68.4899 17.4307 69.3399 17.102 70.4619 17.102C70.9266 17.102 71.3742 17.2493 71.8049 17.544C72.2469 17.8387 72.6096 18.2807 72.8929 18.87C73.1762 19.448 73.3179 20.145 73.3179 20.961C73.3179 21.6977 73.2046 22.406 72.9779 23.086C72.7512 23.766 72.3546 24.3383 71.7879 24.803C71.2326 25.2563 70.4846 25.483 69.5439 25.483C68.9999 25.483 68.4616 25.33 67.9289 25.024V27.795C67.9289 28.0103 67.8439 28.1973 67.6739 28.356C67.5152 28.526 67.3282 28.611 67.1129 28.611ZM69.6459 23.919C70.3032 23.919 70.8189 23.6753 71.1929 23.188C71.5782 22.6893 71.7709 21.947 71.7709 20.961C71.7709 20.2357 71.6292 19.669 71.3459 19.261C71.0739 18.8417 70.7339 18.632 70.3259 18.632C69.7479 18.632 69.2549 18.7453 68.8469 18.972C68.4502 19.1987 68.1442 19.4537 67.9289 19.737V23.511C68.6202 23.783 69.1926 23.919 69.6459 23.919ZM76.0801 25.602C75.8648 25.602 75.6721 25.5283 75.5021 25.381C75.3435 25.2223 75.2641 25.041 75.2641 24.837V14.977C75.2641 14.7503 75.3378 14.5633 75.4851 14.416C75.6438 14.2573 75.8421 14.178 76.0801 14.178C76.2955 14.178 76.4825 14.2573 76.6411 14.416C76.8111 14.5747 76.8961 14.7617 76.8961 14.977V24.837C76.8961 25.041 76.8111 25.2223 76.6411 25.381C76.4711 25.5283 76.2841 25.602 76.0801 25.602ZM82.3417 25.602C81.6957 25.602 81.1007 25.4263 80.5567 25.075C80.024 24.7237 79.6047 24.2477 79.2987 23.647C78.9927 23.035 78.8397 22.372 78.8397 21.658C78.8397 20.8533 79.021 20.1053 79.3837 19.414C79.7464 18.7113 80.2337 18.156 80.8457 17.748C81.4577 17.3287 82.115 17.119 82.8177 17.119C83.4637 17.119 84.053 17.3003 84.5857 17.663C85.1297 18.0257 85.5547 18.5073 85.8607 19.108C86.178 19.7087 86.3367 20.3547 86.3367 21.046C86.3367 21.862 86.1554 22.6213 85.7927 23.324C85.43 24.0153 84.937 24.5707 84.3137 24.99C83.7017 25.398 83.0444 25.602 82.3417 25.602ZM82.3417 24.072C82.7384 24.072 83.118 23.936 83.4807 23.664C83.8434 23.392 84.1324 23.0293 84.3477 22.576C84.563 22.1227 84.6707 21.641 84.6707 21.131C84.6707 20.7003 84.5857 20.298 84.4157 19.924C84.2457 19.5387 84.0134 19.2327 83.7187 19.006C83.424 18.768 83.101 18.649 82.7497 18.649C82.353 18.649 81.979 18.7907 81.6277 19.074C81.2877 19.346 81.0157 19.7143 80.8117 20.179C80.6077 20.6323 80.5057 21.1197 80.5057 21.641C80.5057 22.151 80.5907 22.5873 80.7607 22.95C80.942 23.3127 81.1687 23.5903 81.4407 23.783C81.724 23.9757 82.0244 24.072 82.3417 24.072ZM89.1009 25.602C88.8856 25.602 88.6929 25.5227 88.5229 25.364C88.3529 25.2053 88.2679 25.024 88.2679 24.82V17.935C88.2679 17.7083 88.3473 17.5157 88.5059 17.357C88.6759 17.1983 88.8743 17.119 89.1009 17.119C89.3276 17.119 89.5203 17.1983 89.6789 17.357C89.8489 17.5157 89.9339 17.7083 89.9339 17.935V18.445C90.4893 17.5383 91.2486 17.085 92.2119 17.085C92.7899 17.085 93.2036 17.2437 93.4529 17.561C93.7136 17.8783 93.8439 18.258 93.8439 18.7V19.21C93.8439 19.4367 93.7646 19.6293 93.6059 19.788C93.4586 19.9353 93.2716 20.009 93.0449 20.009C92.7729 20.009 92.5689 19.9297 92.4329 19.771C92.3083 19.6123 92.2459 19.4197 92.2459 19.193V18.972C92.2459 18.7907 92.1213 18.7 91.8719 18.7C91.6679 18.7 91.4299 18.802 91.1579 19.006C90.8973 19.21 90.6819 19.4253 90.5119 19.652C90.2739 19.9467 90.1153 20.2413 90.0359 20.536C89.9679 20.8307 89.9339 21.182 89.9339 21.59L89.9169 24.82C89.9169 25.024 89.8319 25.2053 89.6619 25.364C89.4919 25.5227 89.3049 25.602 89.1009 25.602ZM98.3837 25.602C97.5791 25.602 96.8537 25.432 96.2077 25.092C95.5731 24.7407 95.0744 24.2477 94.7117 23.613C94.3491 22.967 94.1677 22.2077 94.1677 21.335C94.1677 20.621 94.3264 19.941 94.6437 19.295C94.9724 18.6377 95.4257 18.1107 96.0037 17.714C96.5931 17.3173 97.2617 17.119 98.0097 17.119C98.7011 17.119 99.2904 17.2607 99.7777 17.544C100.276 17.816 100.65 18.1447 100.9 18.53C101.149 18.9153 101.274 19.261 101.274 19.567C101.274 19.7143 101.228 19.856 101.138 19.992C101.047 20.128 100.917 20.247 100.747 20.349L96.1907 22.967C96.3494 23.3183 96.6271 23.5903 97.0237 23.783C97.4317 23.9757 97.8851 24.072 98.3837 24.072C99.0411 24.072 99.6021 23.8283 100.067 23.341C100.248 23.1597 100.435 23.069 100.628 23.069C100.854 23.069 101.041 23.1427 101.189 23.29C101.347 23.4373 101.427 23.6187 101.427 23.834C101.427 24.0153 101.359 24.1853 101.223 24.344C100.905 24.6953 100.48 24.9957 99.9477 25.245C99.4264 25.483 98.9051 25.602 98.3837 25.602ZM99.5907 19.363C99.4547 19.125 99.2621 18.9493 99.0127 18.836C98.7634 18.7113 98.4687 18.649 98.1287 18.649C97.4827 18.649 96.9387 18.87 96.4967 19.312C96.0661 19.754 95.8167 20.298 95.7487 20.944C95.7261 21.114 95.7147 21.318 95.7147 21.556L99.5907 19.363ZM105.935 25.602C105.539 25.602 105.278 25.4093 105.153 25.024L102.195 15.317C102.139 15.113 102.11 14.9317 102.11 14.773C102.11 14.5577 102.19 14.382 102.348 14.246C102.507 14.0987 102.7 14.025 102.926 14.025C103.346 14.025 103.618 14.2233 103.742 14.62L105.969 21.947L108.349 14.603C108.474 14.2177 108.746 14.025 109.165 14.025C109.573 14.025 109.834 14.2233 109.947 14.62L111.97 21.964L114.69 14.433C114.838 14.0363 115.11 13.838 115.506 13.838C115.733 13.838 115.926 13.9117 116.084 14.059C116.243 14.195 116.322 14.3707 116.322 14.586C116.322 14.7787 116.294 14.96 116.237 15.13L112.65 25.058C112.594 25.228 112.497 25.364 112.361 25.466C112.225 25.5567 112.067 25.602 111.885 25.602C111.443 25.602 111.171 25.398 111.069 24.99L109.08 17.816L106.751 25.024C106.683 25.2393 106.581 25.3923 106.445 25.483C106.321 25.5623 106.151 25.602 105.935 25.602ZM122.27 25.772C122.043 25.772 121.856 25.7097 121.709 25.585C121.573 25.4603 121.505 25.296 121.505 25.092V24.854C121.04 25.3527 120.394 25.602 119.567 25.602C118.943 25.602 118.382 25.449 117.884 25.143C117.385 24.837 116.994 24.4063 116.711 23.851C116.427 23.2843 116.286 22.644 116.286 21.93C116.286 21.1367 116.456 20.3717 116.796 19.635C117.136 18.887 117.612 18.2807 118.224 17.816C118.847 17.3513 119.561 17.119 120.366 17.119C120.887 17.119 121.357 17.1927 121.777 17.34C122.196 17.476 122.632 17.646 123.086 17.85V24.922C123.086 25.1487 123.006 25.347 122.848 25.517C122.689 25.687 122.496 25.772 122.27 25.772ZM119.686 24.021C120.014 24.021 120.332 23.953 120.638 23.817C120.955 23.681 121.216 23.5167 121.42 23.324L121.471 18.887C121.142 18.751 120.785 18.683 120.4 18.683C119.912 18.683 119.482 18.836 119.108 19.142C118.734 19.4367 118.445 19.8333 118.241 20.332C118.037 20.8193 117.935 21.3407 117.935 21.896C117.935 22.5873 118.088 23.1143 118.394 23.477C118.7 23.8397 119.13 24.021 119.686 24.021ZM126.381 25.602C126.165 25.602 125.973 25.5227 125.803 25.364C125.644 25.2053 125.565 25.024 125.565 24.82V17.918C125.565 17.6913 125.65 17.4987 125.82 17.34C125.99 17.1813 126.188 17.102 126.415 17.102C126.63 17.102 126.811 17.1813 126.959 17.34C127.117 17.4987 127.197 17.6913 127.197 17.918V19.21C127.514 18.53 127.916 18.0143 128.404 17.663C128.891 17.3003 129.424 17.119 130.002 17.119C130.636 17.119 131.141 17.2663 131.515 17.561C131.889 17.8557 132.161 18.343 132.331 19.023C132.501 19.6917 132.586 20.621 132.586 21.811L132.569 24.786C132.569 25.0013 132.495 25.194 132.348 25.364C132.2 25.5227 132.013 25.602 131.787 25.602C131.571 25.602 131.379 25.5227 131.209 25.364C131.05 25.194 130.971 25.007 130.971 24.803V21.981C130.971 21.097 130.931 20.417 130.852 19.941C130.772 19.465 130.653 19.142 130.495 18.972C130.336 18.7907 130.121 18.7 129.849 18.7C129.509 18.7 129.169 18.8473 128.829 19.142C128.489 19.4253 128.171 19.8333 127.877 20.366C127.616 20.8307 127.435 21.284 127.333 21.726C127.231 22.168 127.18 22.7007 127.18 23.324V24.752C127.18 25.0013 127.106 25.2053 126.959 25.364C126.823 25.5227 126.63 25.602 126.381 25.602ZM137.396 25.585C136.818 25.585 136.297 25.4377 135.832 25.143C135.379 24.837 135.016 24.395 134.744 23.817C134.483 23.239 134.353 22.5477 134.353 21.743C134.353 20.7683 134.506 19.9353 134.812 19.244C135.118 18.5527 135.543 18.0313 136.087 17.68C136.631 17.3173 137.26 17.136 137.974 17.136C138.541 17.136 139.147 17.2663 139.793 17.527L139.878 14.892C139.889 14.6653 139.974 14.4727 140.133 14.314C140.303 14.144 140.501 14.059 140.728 14.059C140.943 14.059 141.13 14.144 141.289 14.314C141.459 14.4727 141.538 14.6767 141.527 14.926L141.289 24.82C141.278 25.0467 141.193 25.2337 141.034 25.381C140.875 25.5283 140.683 25.602 140.456 25.602C140.241 25.602 140.054 25.5397 139.895 25.415C139.748 25.2903 139.674 25.126 139.674 24.922V24.616C139.379 24.888 139.034 25.1203 138.637 25.313C138.24 25.4943 137.827 25.585 137.396 25.585ZM137.532 24.055C137.917 24.055 138.274 23.9757 138.603 23.817C138.943 23.647 139.209 23.443 139.402 23.205C139.595 22.967 139.697 22.746 139.708 22.542L139.776 19.193C139.572 19.057 139.311 18.938 138.994 18.836C138.677 18.7227 138.371 18.666 138.076 18.666C137.385 18.666 136.863 18.9267 136.512 19.448C136.161 19.958 135.985 20.706 135.985 21.692C135.985 22.508 136.121 23.1087 136.393 23.494C136.676 23.868 137.056 24.055 137.532 24.055ZM147.553 25.602C146.748 25.602 146.023 25.432 145.377 25.092C144.742 24.7407 144.244 24.2477 143.881 23.613C143.518 22.967 143.337 22.2077 143.337 21.335C143.337 20.621 143.496 19.941 143.813 19.295C144.142 18.6377 144.595 18.1107 145.173 17.714C145.762 17.3173 146.431 17.119 147.179 17.119C147.87 17.119 148.46 17.2607 148.947 17.544C149.446 17.816 149.82 18.1447 150.069 18.53C150.318 18.9153 150.443 19.261 150.443 19.567C150.443 19.7143 150.398 19.856 150.307 19.992C150.216 20.128 150.086 20.247 149.916 20.349L145.36 22.967C145.519 23.3183 145.796 23.5903 146.193 23.783C146.601 23.9757 147.054 24.072 147.553 24.072C148.21 24.072 148.771 23.8283 149.236 23.341C149.417 23.1597 149.604 23.069 149.797 23.069C150.024 23.069 150.211 23.1427 150.358 23.29C150.517 23.4373 150.596 23.6187 150.596 23.834C150.596 24.0153 150.528 24.1853 150.392 24.344C150.075 24.6953 149.65 24.9957 149.117 25.245C148.596 25.483 148.074 25.602 147.553 25.602ZM148.76 19.363C148.624 19.125 148.431 18.9493 148.182 18.836C147.933 18.7113 147.638 18.649 147.298 18.649C146.652 18.649 146.108 18.87 145.666 19.312C145.235 19.754 144.986 20.298 144.918 20.944C144.895 21.114 144.884 21.318 144.884 21.556L148.76 19.363ZM153.166 25.602C152.951 25.602 152.758 25.5227 152.588 25.364C152.418 25.2053 152.333 25.024 152.333 24.82V17.935C152.333 17.7083 152.413 17.5157 152.571 17.357C152.741 17.1983 152.94 17.119 153.166 17.119C153.393 17.119 153.586 17.1983 153.744 17.357C153.914 17.5157 153.999 17.7083 153.999 17.935V18.445C154.555 17.5383 155.314 17.085 156.277 17.085C156.855 17.085 157.269 17.2437 157.518 17.561C157.779 17.8783 157.909 18.258 157.909 18.7V19.21C157.909 19.4367 157.83 19.6293 157.671 19.788C157.524 19.9353 157.337 20.009 157.11 20.009C156.838 20.009 156.634 19.9297 156.498 19.771C156.374 19.6123 156.311 19.4197 156.311 19.193V18.972C156.311 18.7907 156.187 18.7 155.937 18.7C155.733 18.7 155.495 18.802 155.223 19.006C154.963 19.21 154.747 19.4253 154.577 19.652C154.339 19.9467 154.181 20.2413 154.101 20.536C154.033 20.8307 153.999 21.182 153.999 21.59L153.982 24.82C153.982 25.024 153.897 25.2053 153.727 25.364C153.557 25.5227 153.37 25.602 153.166 25.602Z" fill="white"/>
</svg>
